<svg width="512" height="512" viewBox="0 0 512 512" fill="none" xmlns="http://www.w3.org/2000/svg">
  <rect width="512" height="512" rx="96" fill="#0D71FF"/>
  <g transform="translate(256, 200) scale(5.5)">
    <path d="M22.4 0C22.4 0 22.5-0.1 22.6 0C23.3 0.9 23.7 2.0 23.7 3.2C23.7 7.1 19.7 9.9 16 9.9C12.3 9.9 8.3 7.1 8.3 3.2C8.3 2.0 8.7 0.9 9.4 0C9.5-0.1 9.6 0 9.6 0C9.6 0 9.5 0.2 9.5 0.4C9.5 3.0 12.7 4.9 16 4.9C19.3 4.9 22.5 3.0 22.5 0.4C22.5 0.2 22.4 0 22.4 0Z" fill="white" transform="translate(-16, -5)"/>
  </g>
  <text x="256" y="380" text-anchor="middle" font-family="-apple-system, BlinkMacSystemFont, sans-serif" font-size="80" font-weight="800" fill="white" letter-spacing="8">CPT</text>
</svg>
